<?xml version="1.0" encoding="utf-8"?>
<!-- Generator: Adobe Illustrator 16.2.1, SVG Export Plug-In . SVG Version: 6.00 Build 0)  -->
<!DOCTYPE svg PUBLIC "-//W3C//DTD SVG 1.1//EN" "http://www.w3.org/Graphics/SVG/1.1/DTD/svg11.dtd">
<svg version="1.1" id="Layer_1" xmlns="http://www.w3.org/2000/svg" xmlns:xlink="http://www.w3.org/1999/xlink" x="0px" y="0px"
	 width="300px" height="300px" viewBox="0 0 300 300" enable-background="new 0 0 300 300" xml:space="preserve">
<g>
	<path fill="#FFFFFF" d="M150.018,60.36c-19.583,0-35.885,14.011-39.469,32.519v0.007h78.909
		C185.881,74.371,169.587,60.36,150.018,60.36z"/>
	<path fill="#FFFFFF" d="M150,0C67.157,0,0,67.157,0,150c0,82.842,67.157,150,150,150s150-67.158,150-150
		C300,67.157,232.843,0,150,0z M174.386,148.177v92.89L150.439,265l-23.784-23.799c0,0,17.812-5.108,17.812-15.824
		c0-10.673-10.983-13.392-15.275-15.684c-8.039-4.181-2.396-7.243,0.098-8.67c5.72-3.254,15.684-6.584,15.684-14.818
		c0-11.854-19.365-13.394-19.365-13.394v-24.634c-17.813-8.98-30.088-27.424-30.088-48.722C95.52,69.403,119.937,45,150.018,45
		c30.045,0,54.456,24.403,54.462,54.456C204.48,120.76,192.213,139.204,174.386,148.177z"/>
</g>
</svg>
