<?xml version="1.0" encoding="utf-8"?>
<!-- Generator: Adobe Illustrator 16.0.0, SVG Export Plug-In . SVG Version: 6.00 Build 0)  -->
<!DOCTYPE svg PUBLIC "-//W3C//DTD SVG 1.1//EN" "http://www.w3.org/Graphics/SVG/1.1/DTD/svg11.dtd">
<svg version="1.1" id="Layer_1" xmlns="http://www.w3.org/2000/svg" xmlns:xlink="http://www.w3.org/1999/xlink" x="0px" y="0px"
	 width="300px" height="300px" viewBox="0 0 300 300" enable-background="new 0 0 300 300" xml:space="preserve">
<path fill="#FFFFFF" d="M150,0C67.157,0,0,67.157,0,150s67.157,150,150,150s150-67.157,150-150S232.843,0,150,0z M147.774,233.702
	c0.89,0.94,1.83,1.411,2.82,1.411c1.682,0,3.364-0.743,5.046-2.227c4.452-3.66,9.795-10.289,16.028-19.887l5.045,2.969
	C161.773,241.99,145.894,255,129.074,255c-6.431,0-11.552-1.806-15.361-5.417c-3.809-3.61-5.713-8.188-5.713-13.728
	c0-3.66,0.841-8.312,2.522-13.95l20.629-70.94c1.979-6.826,2.968-11.972,2.968-15.435c0-2.176-0.94-4.105-2.82-5.788
	c-1.88-1.682-4.453-2.522-7.717-2.522c-1.484,0-3.265,0.049-5.343,0.148l1.93-5.937l50.311-8.163l8.904,0l-30.424,105.52
	c-1.682,6.035-2.522,9.992-2.522,11.872C146.438,231.749,146.883,232.763,147.774,233.702z M185.618,82.25
	c-4.255,4.255-9.398,6.382-15.435,6.382c-5.937,0-11.032-2.127-15.285-6.382c-4.255-4.254-6.383-9.399-6.383-15.434
	c0-6.036,2.104-11.181,6.309-15.435c4.205-4.254,9.324-6.382,15.359-6.382c6.135,0,11.304,2.127,15.509,6.382
	c4.205,4.254,6.308,9.399,6.308,15.435C192,72.852,189.873,77.997,185.618,82.25z"/>
</svg>
