<?xml version="1.0" encoding="utf-8"?>
<!-- Generator: Adobe Illustrator 16.0.0, SVG Export Plug-In . SVG Version: 6.00 Build 0)  -->
<!DOCTYPE svg PUBLIC "-//W3C//DTD SVG 1.1//EN" "http://www.w3.org/Graphics/SVG/1.1/DTD/svg11.dtd">
<svg version="1.1" id="Layer_1" xmlns="http://www.w3.org/2000/svg" xmlns:xlink="http://www.w3.org/1999/xlink" x="0px" y="0px"
	 width="300px" height="300px" viewBox="0 0 300 300" enable-background="new 0 0 300 300" xml:space="preserve">
<circle fill="#2B3858" cx="150" cy="150" r="150"/>
<path fill="#121928" d="M299.576,161.626c-28.6-21.249-67.744-43.155-101.985-37.142c-62.991,11.063-70.441,61.072-70.441,61.072
	l48.673,12.472l-56.921,0.477l-42.369,13.708l8.937,37.558l34.23-14.204c0,0,40.464,54.629,100.879,47.095
	c8.223-4.393,15.989-9.527,23.207-15.317l-24.068-16.877l32.415,9.666c8.477-7.884,16.037-16.737,22.51-26.383l-10.448-7.327
	l12.743,3.8C289.646,210.087,297.698,186.718,299.576,161.626z"/>
<path fill="#5CE6CB" d="M187.17,172.853l38.282-12.734c3.814-8.646,6.526-20.391,8.881-29.11l-25.887,1.773l28.995-10.575
	c5.845-27.109,4.339-49.708,4.339-49.708S138.279,49.395,100.844,93.118c-53.39,62.357-27.149,84.697-27.149,84.697l88.201-43.996
	L69.439,234.554l7.107,13.367l8.922,1.85l15.375-34.549c0,0,61.052,20.35,101.752-20.352c6.02-6.018,11.054-14.967,15.426-22.373
	L187.17,172.853z"/>
<path fill="#22AD92" d="M232.77,70.741c0,0-101.753-20.351-142.454,20.35s-20.351,81.402-20.351,81.402l81.402-40.701
	c0,0,3.485,16.319-28.23,41.283c-18.735,14.746-43.965,20.387-53.373,22.062l-4.523,49.148l11.307,3.635l13.769-34.725
	c0,0,61.052,20.35,101.753-20.352c6.02-6.02,11.129-12.945,15.501-20.352h-35.852l43.206-14.4
	c3.814-8.646,6.825-17.579,9.182-26.298h-32.037l34.846-11.615C232.758,93.069,232.77,70.741,232.77,70.741z"/>
</svg>
