<?xml version="1.0" encoding="utf-8"?>
<!-- Generator: Adobe Illustrator 16.0.0, SVG Export Plug-In . SVG Version: 6.00 Build 0)  -->
<!DOCTYPE svg PUBLIC "-//W3C//DTD SVG 1.1//EN" "http://www.w3.org/Graphics/SVG/1.1/DTD/svg11.dtd">
<svg version="1.1" id="Layer_1" xmlns="http://www.w3.org/2000/svg" xmlns:xlink="http://www.w3.org/1999/xlink" x="0px" y="0px"
	 width="300px" height="300px" viewBox="0 0 300 300" enable-background="new 0 0 300 300" xml:space="preserve">
<path fill="#FFFFFF" d="M258.795,113.185c7.33-33.999,5.441-62.341,5.441-62.341s-4.186-0.932-11.3-2.145c0-0.029,0-0.06,0-0.06
	S125.325,23.116,74.28,74.16c-51.044,51.044-25.522,102.089-25.522,102.089l0.036-0.018c2.2,4.605,4.642,6.69,4.642,6.69
	l96.252-48.01c-2.71,8.951-10.816,23.625-34.246,42.067c-23.497,18.493-55.139,25.568-66.937,27.669l-5.672,61.638l14.176,4.558
	l0.001,0.003l11.188,2.32l18.983-42.652c2.301,0.457,4.869,0.914,7.658,1.332c20.372,4.857,78.749,13.972,120.252-27.533
	c7.55-7.548,13.862-18.771,19.347-28.058l-13.202,0.152c0.031-0.053,0.064-0.106,0.097-0.16h-24.221l46.646-15.516
	c4.782-10.845,8.185-25.574,11.138-36.508l-14.356,0.983h-14.708L258.795,113.185z"/>
</svg>
