<?xml version="1.0" encoding="utf-8"?>
<!-- Generator: Adobe Illustrator 16.0.0, SVG Export Plug-In . SVG Version: 6.00 Build 0)  -->
<!DOCTYPE svg PUBLIC "-//W3C//DTD SVG 1.1//EN" "http://www.w3.org/Graphics/SVG/1.1/DTD/svg11.dtd">
<svg version="1.1" id="Layer_1" xmlns="http://www.w3.org/2000/svg" xmlns:xlink="http://www.w3.org/1999/xlink" x="0px" y="0px"
	 width="300px" height="300px" viewBox="0 0 300 300" enable-background="new 0 0 300 300" xml:space="preserve">
<path fill="#FFFFFF" d="M150,0C67.157,0,0,67.157,0,150s67.157,150,150,150s150-67.157,150-150S232.843,0,150,0z M237.441,122.207
	l-26.283,9.586h11.728l11.447-0.784c-2.354,8.719-5.067,20.464-8.881,29.11l-37.193,12.372h19.312
	c-0.025,0.043-0.052,0.085-0.077,0.128l10.527-0.122c-4.373,7.405-9.406,16.354-15.427,22.373
	c-33.094,33.095-79.641,25.827-95.885,21.954c-2.224-0.334-4.271-0.698-6.106-1.063l-15.136,34.011l-8.922-1.851l-0.001-0.002
	l-11.304-3.634l4.523-49.148c9.408-1.675,34.638-7.316,53.373-22.062c18.682-14.705,25.145-26.406,27.306-33.543l-76.749,38.283
	c0,0-1.947-1.663-3.701-5.336l-0.029,0.015c0,0-20.35-40.701,20.351-81.402c40.701-40.701,142.454-20.35,142.454-20.35
	s0,0.024,0,0.048c5.673,0.967,9.011,1.71,9.011,1.71S243.286,95.098,237.441,122.207z"/>
</svg>
