<?xml version="1.0" encoding="utf-8"?>
<!-- Generator: Adobe Illustrator 19.1.0, SVG Export Plug-In . SVG Version: 6.00 Build 0)  -->
<svg version="1.1" id="Layer_2" xmlns="http://www.w3.org/2000/svg" xmlns:xlink="http://www.w3.org/1999/xlink" x="0px" y="0px"
	 viewBox="0 0 300 300" style="enable-background:new 0 0 300 300;" xml:space="preserve">
<style type="text/css">
	.st0{fill:#FFFFFF;}
</style>
<path class="st0" d="M150,0C67.2,0,0,67.2,0,150s67.2,150,150,150s150-67.2,150-150S232.8,0,150,0z M150.2,48.7
	c48.3,0,43.9,53.2,43.9,53.2s-2.4,52.6-44.8,53.8c-42.4,1.2-44.9-53.8-44.9-53.8S101.9,48.7,150.2,48.7z M240.5,251.3
	c-10.5,0-183.7,0-183.7,0s-4.9-0.9-8-12l24.1-57.5l42.1-21c0,0,33.4,23.5,68.1,0l40.8,19.2l27.5,54.4
	C251.3,234.3,251,251.3,240.5,251.3z"/>
</svg>
